<?xml version="1.0" standalone="no"?>
<!DOCTYPE svg PUBLIC "-//W3C//DTD SVG 1.1//EN" 
"http://www.w3.org/Graphics/SVG/1.1/DTD/svg11.dtd">

<svg width="564" height="612" version="1.1"
xmlns="http://www.w3.org/2000/svg" xmlns:xlink="http://www.w3.org/1999/xlink">

<rect x="67" y="102" width="485" height="485"
stroke="black" stroke-width="2.0" fill="none" />
<path stroke="black" stroke-width="1.5" d=" M 122 587 L 122 593 M 177 587 L 177 593 M 233 587 L 233 593 M 288 587 L 288 593 M 344 587 L 344 593 M 399 587 L 399 593 M 455 587 L 455 593 M 510 587 L 510 593" fill="none" />
<text x="122" y="609" text-anchor="middle">200</text>
<text x="177" y="609" text-anchor="middle">400</text>
<text x="233" y="609" text-anchor="middle">600</text>
<text x="288" y="609" text-anchor="middle">800</text>
<text x="344" y="609" text-anchor="middle">1000</text>
<text x="399" y="609" text-anchor="middle">1200</text>
<text x="455" y="609" text-anchor="middle">1400</text>
<text x="510" y="609" text-anchor="middle">1600</text>
<text x="309" y="623" text-anchor="middle">ref|NM_203416.3| Gene info linked to NM_203416.3 H</text>
<path stroke="black" stroke-width="1.5" d=" M 67 532 L 61 532 M 67 477 L 61 477 M 67 421 L 61 421 M 67 366 L 61 366 M 67 310 L 61 310 M 67 255 L 61 255 M 67 199 L 61 199 M 67 144 L 61 144" fill="none" />
<text x="57" y="536" text-anchor="end">200</text>
<text x="57" y="481" text-anchor="end">400</text>
<text x="57" y="425" text-anchor="end">600</text>
<text x="57" y="370" text-anchor="end">800</text>
<text x="57" y="314" text-anchor="end">1000</text>
<text x="57" y="259" text-anchor="end">1200</text>
<text x="57" y="203" text-anchor="end">1400</text>
<text x="57" y="148" text-anchor="end">1600</text>
<g transform="rotate(-90, 142, 142)">
<text x="0" y="12" text-anchor="middle">ref|NM_203416.3| Gene info linked to NM_203416.3 H</text>
</g>
<text x="54" y="660">E(): </text><path stroke-width="1.5" stroke="black" d=" M 96 648 L 156 648" fill="none" />
<text align="center" x="162" y="652">&lt;0.0001</text>
<path stroke-width="1.5" stroke="blue" d=" M 96 666 L 156 666" fill="none" />
<text align="center" x="162" y="670">&lt;0.01</text>
<path stroke-width="1.5" stroke="brown" d=" M 240 648 L 300 648" fill="none" />
<text align="center" x="306" y="652">&lt;1</text>
<path stroke-width="1.5" stroke="green" d=" M 240 666 L 300 666" fill="none" />
<text align="center" x="306" y="670">&lt;1e+02</text>
<path stroke-width="1.5" stroke="lightgreen" d=" M 384 657 L 444 657" fill="none" />
<text align="center" x="450" y="661">&gt;1e+02</text>
<path stroke="black" stroke-width="1.5" d=" M 67 587 L 552 102" fill="none" />
<!-- score: 1651; bits: 334.0; E(): 9e-95 -->
<path  stroke="black" d=" M 140 425 L 217 347 L 218 347 L 336 229 L 336 229 L 338 226 L 339 226 L 376 189 L 376 188 L 380 185 L 380 185 L 407 158 L 409 158 L 425 141 L 426 141 L 428 138 L 429 138 L 448 118" fill="none" />
<!-- score: 1098; bits: 223.7; E(): 1e-61 -->
<path  stroke="black" d=" M 140 336 L 216 259 L 218 258 L 276 200 L 277 200 L 284 193 L 284 193 L 286 191 L 286 190 L 317 159 L 319 158 L 323 155 L 323 154 L 336 141 L 337 141 L 340 139 L 340 138 L 347 131 L 348 130 L 352 126 L 353 125 L 375 102" fill="none" />
<!-- score: 548; bits: 114.0; E(): 1e-28 -->
<path  stroke="black" d=" M 135 251 L 139 246 L 141 246 L 191 196 L 191 195 L 192 193 L 193 193 L 217 169 L 218 169 L 229 158 L 231 158 L 236 152 L 238 152 L 241 149 L 241 148 L 286 102" fill="none" />
<!-- score: 122; bits: 29.0; E(): 0.006 -->
<path  stroke="blue" d=" M 142 157 L 197 102" fill="none" />
<!-- score: 98; bits: 24.3; E(): 0.1 -->
<path  stroke="brown" d=" M 299 258 L 301 255 L 302 255 L 307 250 L 308 249 L 312 244 L 313 244 L 316 241 L 317 241 L 318 239 L 319 238 L 319 237 L 320 237 L 321 236 L 321 235 L 322 234 L 323 234 L 325 231 L 326 230 L 328 229 L 328 228 L 333 222 L 335 222 L 336 220 L 338 220 L 338 220 L 339 220 L 341 217 L 341 216 L 347 210 L 348 210 L 357 200" fill="none" />
<!-- score: 116; bits: 27.8; E(): 0.01 -->
<path  stroke="brown" d=" M 387 306 L 397 297 L 397 297 L 399 295 L 399 295 L 416 278 L 416 278 L 418 276 L 419 275 L 427 267" fill="none" />
</svg>
